<svg width="35" height="35" viewBox="0 0 35 35" fill="none" xmlns="http://www.w3.org/2000/svg"><g clip-path="url(#clip0)"><path d="M34.082 27l-7.085-4.724a2.068 2.068 0 00-2.768.45l-2.064 2.653a.882.882 0 01-1.13.238l-.393-.216c-1.301-.71-2.92-1.592-6.183-4.855-3.262-3.264-4.146-4.884-4.856-6.183l-.215-.393a.883.883 0 01.233-1.135l2.652-2.062a2.069 2.069 0 00.45-2.77L7.999.92A2.057 2.057 0 005.226.296l-2.962 1.78A4.179 4.179 0 00.358 4.547C-.708 8.435.094 15.143 9.975 25.025 17.835 32.885 23.688 35 27.71 35c.925.004 1.847-.117 2.74-.358a4.175 4.175 0 002.474-1.906l1.781-2.96A2.057 2.057 0 0034.082 27zm-.382 2.176l-1.777 2.963a3.015 3.015 0 01-1.779 1.378c-3.588.986-9.857.17-19.343-9.317C1.314 14.714.498 8.445 1.483 4.857a3.019 3.019 0 011.38-1.782l2.963-1.777a.892.892 0 011.203.27l2.567 3.854 2.154 3.23a.898.898 0 01-.195 1.202l-2.652 2.063a2.041 2.041 0 00-.54 2.62l.21.382c.745 1.368 1.672 3.068 5.055 6.451 3.384 3.383 5.084 4.31 6.45 5.055l.384.211a2.041 2.041 0 002.62-.54l2.063-2.652a.898.898 0 011.201-.195l7.084 4.724a.892.892 0 01.27 1.203z" fill="#FF3721"/></g><defs><clipPath id="clip0"><path fill="#fff" d="M0 0h35v35H0z"/></clipPath></defs></svg>