<svg width="40" height="40" viewBox="0 0 40 40" fill="none" xmlns="http://www.w3.org/2000/svg"><g clip-path="url(#clip0)"><path d="M39.992 15.292a.632.632 0 00-.027-.135.67.67 0 00-.038-.115.597.597 0 00-.067-.102.632.632 0 00-.088-.104c-.011-.009-.016-.021-.027-.03l-6.412-4.98V4.665a2 2 0 00-2-2h-7.225L21.215.418a1.977 1.977 0 00-2.431 0L15.89 2.665H8.665a2 2 0 00-2 2v5.16l-6.41 4.98c-.01.01-.016.022-.026.032a.624.624 0 00-.089.103.596.596 0 00-.066.102.656.656 0 00-.038.115.63.63 0 00-.028.133c0 .014-.008.026-.008.04V38c.001.424.138.836.392 1.176.004.006.004.014.009.02.005.004.015.01.021.018A1.99 1.99 0 001.998 40H38a1.991 1.991 0 001.582-.79c.005-.006.013-.008.017-.015.005-.007.006-.013.01-.019.253-.34.39-.752.391-1.176V15.332c0-.014-.007-.026-.008-.04zM19.6 1.47a.64.64 0 01.796 0l1.538 1.195h-3.867L19.6 1.47zM2.166 38.666L19.6 25.126a.64.64 0 01.796 0l17.437 13.54H2.166zm36.5-1.039l-17.45-13.554a1.978 1.978 0 00-2.432 0L1.332 37.627v-21.28l10.925 8.484a.667.667 0 00.817-1.054l-11.1-8.619 4.691-3.644v5.151a.667.667 0 101.334 0v-12c0-.369.298-.667.666-.667h22.668c.368 0 .667.298.667.667v12a.667.667 0 101.333 0v-5.151l4.69 3.645-11.118 8.633a.667.667 0 10.817 1.054l10.945-8.499v21.28z" fill="#FF3721"/></g><defs><clipPath id="clip0"><path fill="#fff" d="M0 0h40v40H0z"/></clipPath></defs></svg>