<svg width="40" height="40" viewBox="0 0 40 40" fill="none" xmlns="http://www.w3.org/2000/svg"><g clip-path="url(#clip0)"><path d="M37.806 10.91C34.49 4.44 27.756 0 20 0 12.242 0 5.507 4.443 2.191 10.916c-.013.026-.029.05-.039.076A19.869 19.869 0 000 20c0 3.24.78 6.3 2.152 9.008.01.027.026.05.04.076C5.505 35.557 12.241 40 20 40c7.756 0 14.49-4.44 17.806-10.91.015-.028.032-.054.043-.085A19.868 19.868 0 0040 20a19.87 19.87 0 00-2.15-9.005c-.012-.03-.029-.057-.044-.085zm-1.332 16.916H28.83c.425-2.142.677-4.485.725-6.956h8.662a18.104 18.104 0 01-1.743 6.956zM20 38.261c-2.75 0-5.217-3.526-6.616-8.696h13.232c-1.399 5.17-3.866 8.696-6.616 8.696zm-7.032-10.435a37.911 37.911 0 01-.774-6.956h15.613a38.06 38.06 0 01-.774 6.956H12.968zM1.783 20.87h8.662c.049 2.47.3 4.814.725 6.956H3.526a18.103 18.103 0 01-1.743-6.956zm1.743-8.696h7.644a39.906 39.906 0 00-.725 6.956H1.783c.118-2.48.728-4.83 1.743-6.956zM20 1.739c2.75 0 5.217 3.526 6.616 8.696H13.384C14.783 5.265 17.25 1.739 20 1.739zm7.032 10.435c.45 2.137.722 4.49.774 6.956H12.193a38.05 38.05 0 01.774-6.956h14.065zm2.523 6.956c-.049-2.47-.3-4.814-.725-6.956h7.644a18.104 18.104 0 011.743 6.956h-8.662zm5.97-8.695h-7.088c-.88-3.45-2.23-6.265-3.883-8.098a18.296 18.296 0 0110.971 8.098zm-20.08-8.098c-1.652 1.833-3.002 4.648-3.883 8.098H4.474a18.301 18.301 0 0110.971-8.098zM4.475 29.565h7.088c.88 3.45 2.229 6.265 3.882 8.098a18.3 18.3 0 01-10.97-8.098zm20.08 8.098c1.652-1.833 3.002-4.647 3.883-8.098h7.087a18.3 18.3 0 01-10.97 8.098z" fill="#FF3721"/></g><defs><clipPath id="clip0"><path fill="#fff" d="M0 0h40v40H0z"/></clipPath></defs></svg>