<?xml version="1.0" encoding="utf-8"?><svg viewBox="0 0 40 40" xmlns="http://www.w3.org/2000/svg" xmlns:xlink="http://www.w3.org/1999/xlink"><style>:root>svg{display:none}:root>svg:target{display:block}</style><svg viewBox="0 0 24 24" class="aicon-check" id="icon-check" xmlns="http://www.w3.org/2000/svg"><circle cx="12" cy="12" r="10" fill="var(--primary)"/><path class="asecondary" d="M10 14.59l6.3-6.3a1 1 0 011.4 1.42l-7 7a1 1 0 01-1.4 0l-3-3a1 1 0 011.4-1.42l2.3 2.3z"/></svg><svg viewBox="0 0 24 24" class="bicon-cheveron-down" id="icon-cheveron-down" xmlns="http://www.w3.org/2000/svg"><path class="bsecondary" fill-rule="evenodd" d="M15.3 10.3a1 1 0 011.4 1.4l-4 4a1 1 0 01-1.4 0l-4-4a1 1 0 011.4-1.4l3.3 3.29 3.3-3.3z"/></svg><svg viewBox="0 0 24 24" class="cicon-close-circle" id="icon-close-circle" xmlns="http://www.w3.org/2000/svg"><circle cx="12" cy="12" r="10" fill="var(--primary)"/><path class="csecondary" d="M13.41 12l2.83 2.83a1 1 0 01-1.41 1.41L12 13.41l-2.83 2.83a1 1 0 11-1.41-1.41L10.59 12 7.76 9.17a1 1 0 011.41-1.41L12 10.59l2.83-2.83a1 1 0 011.41 1.41L13.41 12z"/></svg><svg fill="none" viewBox="0 0 40 40" id="icon-global" xmlns="http://www.w3.org/2000/svg"><g clip-path="url(#dclip0)"><path d="M37.806 10.91C34.49 4.44 27.756 0 20 0 12.242 0 5.507 4.443 2.191 10.916c-.013.026-.029.05-.039.076A19.869 19.869 0 000 20c0 3.24.78 6.3 2.152 9.008.01.027.026.05.04.076C5.505 35.557 12.241 40 20 40c7.756 0 14.49-4.44 17.806-10.91.015-.028.032-.054.043-.085A19.868 19.868 0 0040 20c0-3.238-.778-6.297-2.15-9.005-.012-.03-.029-.057-.044-.085zm-1.332 16.916H28.83c.425-2.142.677-4.485.725-6.956h8.662a18.104 18.104 0 01-1.743 6.956zM20 38.261c-2.75 0-5.217-3.526-6.616-8.696h13.232c-1.399 5.17-3.866 8.696-6.616 8.696zm-7.032-10.435a37.911 37.911 0 01-.774-6.956h15.613a38.06 38.06 0 01-.774 6.956H12.968zM1.783 20.87h8.662c.049 2.47.3 4.814.725 6.956H3.526a18.103 18.103 0 01-1.743-6.956zm1.743-8.696h7.644a39.906 39.906 0 00-.725 6.956H1.783c.118-2.48.728-4.83 1.743-6.956zM20 1.739c2.75 0 5.217 3.526 6.616 8.696H13.384C14.783 5.265 17.25 1.739 20 1.739zm7.032 10.435c.45 2.137.722 4.49.774 6.956H12.193a38.05 38.05 0 01.774-6.956h14.065zm2.523 6.956c-.049-2.47-.3-4.814-.725-6.956h7.644a18.104 18.104 0 011.743 6.956h-8.662zm5.97-8.695h-7.088c-.88-3.45-2.23-6.265-3.883-8.098a18.296 18.296 0 0110.971 8.098zm-20.08-8.098c-1.652 1.833-3.002 4.648-3.883 8.098H4.474a18.301 18.301 0 0110.971-8.098zM4.475 29.565h7.088c.88 3.45 2.229 6.265 3.882 8.098a18.3 18.3 0 01-10.97-8.098zm20.08 8.098c1.652-1.833 3.002-4.647 3.883-8.098h7.087a18.3 18.3 0 01-10.97 8.098z" fill="#FF3721"/></g><defs><clipPath id="dclip0"><path fill="#fff" d="M0 0h40v40H0z"/></clipPath></defs></svg><svg fill="none" viewBox="0 0 40 40" id="icon-location" xmlns="http://www.w3.org/2000/svg"><path d="M20 0C12.246 0 5.937 6.308 5.937 14.063c0 2.62.726 5.176 2.1 7.394l11.162 17.989c.214.345.591.554.996.554h.01c.408-.003.786-.22.996-.57l10.878-18.163a14.046 14.046 0 001.983-7.204C34.063 6.308 27.755 0 20 0zm10.068 20.064l-9.89 16.513-10.15-16.355a11.704 11.704 0 01-1.762-6.16C8.266 7.601 13.538 2.329 20 2.329s11.727 5.273 11.727 11.735c0 2.118-.58 4.194-1.66 6z" fill="#FF3721"/><path d="M20 7.031a7.04 7.04 0 00-7.031 7.032A7.022 7.022 0 0020 21.093c3.977 0 7.031-3.22 7.031-7.03A7.04 7.04 0 0020 7.03zm0 11.735a4.707 4.707 0 01-4.703-4.703c0-2.585 2.118-4.704 4.703-4.704 2.585 0 4.695 2.119 4.695 4.704 0 2.553-2.056 4.703-4.695 4.703z" fill="#FF3721"/></svg><svg fill="none" viewBox="0 0 40 40" id="icon-mail" xmlns="http://www.w3.org/2000/svg"><g clip-path="url(#fclip0)"><path d="M39.992 15.292a.632.632 0 00-.027-.135.67.67 0 00-.038-.115.597.597 0 00-.067-.102.632.632 0 00-.088-.104c-.011-.009-.016-.021-.027-.03l-6.412-4.98V4.665a2 2 0 00-2-2h-7.225L21.215.418a1.977 1.977 0 00-2.431 0L15.89 2.665H8.665a2 2 0 00-2 2v5.16l-6.41 4.98c-.01.01-.016.022-.026.032a.624.624 0 00-.089.103.596.596 0 00-.066.102.656.656 0 00-.038.115.63.63 0 00-.028.133c0 .014-.008.026-.008.04V38c.001.424.138.836.392 1.176.004.006.004.014.009.02.005.004.015.01.021.018A1.99 1.99 0 001.998 40H38a1.991 1.991 0 001.582-.79c.005-.006.013-.008.017-.015.005-.007.006-.013.01-.019.253-.34.39-.752.391-1.176V15.332c0-.014-.007-.026-.008-.04zM19.6 1.47a.64.64 0 01.796 0l1.538 1.195h-3.867l1.533-1.195zM2.166 38.666L19.6 25.126a.64.64 0 01.796 0l17.437 13.54H2.166zm36.5-1.039l-17.45-13.554a1.978 1.978 0 00-2.432 0L1.332 37.627v-21.28l10.925 8.484a.667.667 0 00.817-1.054l-11.1-8.619 4.691-3.644v5.151a.667.667 0 101.334 0v-12c0-.369.298-.667.666-.667h22.668c.368 0 .667.298.667.667v12a.667.667 0 101.333 0v-5.151l4.69 3.645-11.118 8.633a.667.667 0 10.817 1.054l10.945-8.499v21.28z" fill="#FF3721"/></g><defs><clipPath id="fclip0"><path fill="#fff" d="M0 0h40v40H0z"/></clipPath></defs></svg><svg viewBox="0 0 24 24" class="gicon-menu" id="icon-menu" xmlns="http://www.w3.org/2000/svg"><path class="gsecondary" fill-rule="evenodd" d="M4 5h16a1 1 0 010 2H4a1 1 0 110-2zm0 6h16a1 1 0 010 2H4a1 1 0 010-2zm0 6h16a1 1 0 010 2H4a1 1 0 010-2z"/></svg><svg fill="none" viewBox="0 0 35 35" id="icon-phone" xmlns="http://www.w3.org/2000/svg"><g clip-path="url(#hclip0)"><path d="M34.082 27l-7.085-4.724a2.068 2.068 0 00-2.768.45l-2.064 2.653a.882.882 0 01-1.13.238l-.393-.216c-1.301-.71-2.92-1.592-6.183-4.855-3.262-3.264-4.146-4.884-4.856-6.183l-.215-.393a.883.883 0 01.233-1.135l2.652-2.062a2.069 2.069 0 00.45-2.77L7.999.92A2.057 2.057 0 005.226.296l-2.962 1.78A4.179 4.179 0 00.358 4.547C-.708 8.435.094 15.143 9.975 25.025 17.835 32.885 23.688 35 27.71 35c.925.004 1.847-.117 2.74-.358a4.175 4.175 0 002.474-1.906l1.781-2.96A2.057 2.057 0 0034.082 27zm-.382 2.176l-1.777 2.963a3.015 3.015 0 01-1.779 1.378c-3.588.986-9.857.17-19.343-9.317C1.314 14.714.498 8.445 1.483 4.857a3.019 3.019 0 011.38-1.782l2.963-1.777a.892.892 0 011.203.27l2.567 3.854 2.154 3.23a.898.898 0 01-.195 1.202l-2.652 2.063a2.041 2.041 0 00-.54 2.62l.21.382c.745 1.368 1.672 3.068 5.055 6.451 3.384 3.383 5.084 4.31 6.45 5.055l.384.211a2.041 2.041 0 002.62-.54l2.063-2.652a.898.898 0 011.201-.195l7.084 4.724a.892.892 0 01.27 1.203z" fill="#FF3721"/></g><defs><clipPath id="hclip0"><path fill="#fff" d="M0 0h35v35H0z"/></clipPath></defs></svg><svg viewBox="0 0 24 24" class="iicon-time" id="icon-time" xmlns="http://www.w3.org/2000/svg"><circle cx="12" cy="12" r="10" fill="var(--primary)"/><path class="isecondary" d="M13 11.59l3.2 3.2a1 1 0 01-1.4 1.42l-3.5-3.5A1 1 0 0111 12V7a1 1 0 012 0v4.59z"/></svg></svg>