<?xml version="1.0" encoding="utf-8"?><svg width="40" height="40" fill="none" xmlns="http://www.w3.org/2000/svg" viewBox="0 0 40 40"><path d="M20 0C12.246 0 5.937 6.308 5.937 14.063c0 2.62.726 5.176 2.1 7.394l11.162 17.989c.214.345.591.554.996.554h.01c.408-.003.786-.22.996-.57l10.878-18.163a14.046 14.046 0 001.983-7.204C34.063 6.308 27.755 0 20 0zm10.068 20.064l-9.89 16.513-10.15-16.355a11.704 11.704 0 01-1.762-6.16C8.266 7.601 13.538 2.329 20 2.329s11.727 5.273 11.727 11.735c0 2.118-.58 4.194-1.66 6z" fill="#FF3721"/><path d="M20 7.031a7.04 7.04 0 00-7.031 7.032A7.022 7.022 0 0020 21.093c3.977 0 7.031-3.22 7.031-7.03A7.04 7.04 0 0020 7.03zm0 11.735a4.707 4.707 0 01-4.703-4.703c0-2.585 2.118-4.704 4.703-4.704 2.585 0 4.695 2.119 4.695 4.704 0 2.553-2.056 4.703-4.695 4.703z" fill="#FF3721"/></svg>