<svg width="1600" height="683" viewBox="0 0 1600 683" fill="none" xmlns="http://www.w3.org/2000/svg"><path d="M1236.49 138.066c-16.07-16.315-35.44-29.154-56.3-38.385l20.67-36.456c-27.02-12.072-55.93-19.238-85.84-21.167l-2.8 40.954c-23.55-1.728-47.43.77-70.09 7.339l-14.96-39.07c-27.934 8.042-53.775 20.485-76.312 37.42l-.322.242 31.056 30.957c-18.674 14.031-32.677 30.53-42.854 48.637l-42.001-18.748c-13.314 23.453-20.992 48.647-22.67 74.813l46.503 3.411c-1.56 20.598 1.711 41.55 9.33 61.228l-45.005 12.897c9.353 24.85 24.623 47.745 44.36 67.78l.846.859 31.633-24.765 2.897-2.177c16.072 16.315 35.439 29.154 55.979 38.627l-20.674 36.455c27.024 12.073 55.934 19.239 85.844 21.168l3.08-40.668c23.56 1.728 47.43-.77 70.05-6.811l14.96 39.07c28.54-7.997 54.1-20.727 76.63-37.662l1.61-1.21 1.61-1.209-33.95-28.78a164.795 164.795 0 0043.14-48.35l42 18.747c13.31-23.453 20.99-48.647 22.99-75.055l-46.5-3.411c1.56-20.598-1.71-41.55-9.01-61.469l44.36-12.413c-9.64-25.137-24.62-47.745-44.92-68.353l-35.34 25.555zm-78.67 160.724c-36.06 27.095-91.02 23.064-122.6-8.993s-27.94-80.119 8.12-107.214c36.06-27.096 91.02-23.065 122.6 8.993 31.54 32.585 27.62 80.36-8.12 107.214z" fill="#133447" fill-opacity=".2"/><path d="M980.611 121.114c-74.916 56.303-82.095 155.905-16.695 222.281 65.684 66.662 179.564 74.788 254.154 18.726 74.92-56.303 82.1-155.905 16.7-222.281-65.4-66.377-179.56-74.788-254.159-18.726zm175.709 178.334c-35.86 26.948-90.53 22.92-121.97-8.987-31.44-31.906-27.85-79.725 8.01-106.674 35.86-26.948 90.54-22.919 121.97 8.987 31.4 32.432 27.53 79.966-8.01 106.674z" fill="#1E5370" fill-opacity=".2"/><path d="M1671.73 683H0V413.514s18.157 40.864 62.168 40.423c45.88-.461 23.202-88.792 59.555-100.833 32.886-10.893 71.007 26.769 111.797 30.093 59.855 4.877 24.766 64.666 85.677 65.125 61.848.467 47.246-36.744 105.005-46.261 44.768-7.377 95.633 15.55 142.62 11.453 69.973-6.102 76.133-44.809 147.321-47.16 58.429-1.93 66.443 10.323 111.798 26.275 45.972 16.169 24.88 34.944 78.884 41.545 59.39 7.26 54.208-65.983 105.005-81.07 28.73-8.534 86.61 56.326 112.32 48.957 65.83-18.864 26.11-59.509 74.18-80.172 50.68-21.784 132.95.059 160.39-22.458 17.24-14.148 34.5-62.641 72.61-62.431 37.46.207 59.25 92.609 96.13 95.443 49.21 3.784 64.51-26.108 114.41-24.702 96.68 2.723 31.86 105.773 31.86 105.773V683z" fill="#0091C8" fill-opacity=".65"/></svg>