<svg width="150" height="40" viewBox="0 0 150 40" fill="none" xmlns="http://www.w3.org/2000/svg"><path d="M42.237 0L18.19 38.635l38.083.068L42.237 0zM0 .136v.205l14.037 38.294L37.957.136H0z" fill="#FF3721"/><path d="M16.87 11.127l5.476-7.509-3.588-.068-4.28 5.87.062-5.87h-3.02l-.063 16.928 3.021.068V12.97l4.784 7.576h3.525l-5.917-9.42zM44.691 25.53c-.566-.888-1.258-1.503-2.077-1.776-.818-.34-1.888-.477-3.21-.477h-.63V20H44v-3.14l-8.183-.068-.063 16.997h4.406c1.322 0 2.33-.205 3.022-.615.755-.41 1.322-1.024 1.762-1.706.44-.683.63-1.639.63-2.799-.063-1.229-.315-2.32-.882-3.14zm-2.643 4.64c-.378.41-1.196.547-2.581.547h-.755v-4.573h.63c2.14 0 3.272.819 3.272 2.457 0 .614-.189 1.16-.566 1.57z" fill="#fff"/><path d="M66.408.205H64.33l-6.295 6.348V.205h-1.574L56.4 17.2h1.574l.063-7.918 6.798 7.85h2.077l-8.057-9.351L66.408.205zm9.63.273C75.41.273 74.213.205 72.451.205h-3.148L69.24 17.2h1.574l.063-7.918h1.133c1.951 0 3.273-.068 3.966-.273.944-.273 1.762-.75 2.266-1.501.566-.751.818-1.639.818-2.8 0-1.091-.252-2.047-.818-2.798A4.3 4.3 0 0076.038.477zm1.008 5.87c-.315.478-.693.82-1.196 1.024-.504.205-1.26.341-2.33.273l-2.643-.068V1.843h2.77c1.07 0 1.825.137 2.266.341.44.205.818.546 1.133 1.024.251.478.44 1.024.44 1.57 0 .614-.189 1.092-.44 1.57zM88.25.341L80.76 17.27h1.762l2.455-5.598 6.735.069 2.455 5.597h1.7L88.627.34h-.377zm-2.518 9.693l2.707-6.143 2.644 6.143h-5.35zm16.87-7.372c1.07-.614 2.203-.956 3.462-.956 1.133 0 2.203.274 3.147.751.944.478 1.762 1.229 2.455 2.185l1.259-1.024c-.756-1.16-1.7-2.048-2.896-2.662A8.572 8.572 0 00106.064 0c-2.392 0-4.407.82-6.043 2.526-1.637 1.706-2.455 3.754-2.455 6.28 0 2.389.63 4.368 1.951 6.075 1.574 1.98 3.714 3.003 6.484 3.003 1.448 0 2.769-.273 3.902-.887 1.196-.615 2.141-1.434 2.959-2.458l-1.259-1.024c-1.511 1.843-3.336 2.799-5.539 2.73-2.015 0-3.651-.682-4.973-2.115-1.322-1.434-1.951-3.14-1.951-5.188a7.9 7.9 0 01.881-3.686c.692-1.092 1.511-1.98 2.581-2.594zm19.954 5.53c-.882-.41-2.267-.547-4.218-.615h-.755V2.116l6.294.068V.546l-7.868-.068-.063 16.996h4.281c1.573 0 2.832-.477 3.713-1.433.882-.956 1.322-2.116 1.385-3.413 0-.956-.252-1.911-.755-2.662a3.82 3.82 0 00-2.014-1.775zm.692 6.143c-.315.477-.755.887-1.259 1.092-.504.273-1.385.34-2.518.34h-1.951V9.284h.881c1.322 0 2.329.069 2.959.273a3.123 3.123 0 011.636 1.093c.441.546.693 1.228.63 1.979.126.683-.063 1.229-.378 1.707zm5.224 3.208l8.876.068v-1.638l-7.365-.069.063-6.689 7.365.068V7.645l-7.365-.068V2.253l7.428.068V.683l-8.939-.069-.063 16.929zm20.647-15.154c-.567-.75-1.322-1.229-2.203-1.502-.63-.204-1.826-.273-3.588-.273h-3.148l-.063 16.997h1.574l.063-7.918h1.133c1.951 0 3.273-.068 3.966-.273.944-.273 1.762-.751 2.266-1.502.566-.75.818-1.638.818-2.799a4.103 4.103 0 00-.818-2.73zm-1.196 4.369c-.315.477-.693.819-1.196 1.024-.504.204-1.259.34-2.329.273l-2.644-.069V2.253h2.77c1.07 0 1.825.136 2.266.34.44.206.818.547 1.133 1.025.252.478.44 1.024.44 1.57 0 .614-.126 1.092-.44 1.57zM66.785 32.56c-.314-.273-.692-.478-1.258-.683.44-.273.755-.614 1.007-.956.251-.41.314-.887.314-1.365 0-.546-.125-1.024-.377-1.433a2.78 2.78 0 00-1.007-.956c-.441-.205-1.07-.341-1.889-.341h-2.014l-.063 11.194h2.833c1.007 0 1.825-.273 2.454-.887.63-.614.945-1.365.945-2.253 0-.41-.063-.819-.252-1.228-.189-.478-.378-.82-.692-1.092zm-4.217-4.71h1.196c.693 0 1.259.136 1.574.478.315.273.503.682.503 1.228 0 .41-.126.751-.314 1.024-.19.341-.441.546-.819.683-.377.136-.881.204-1.573.204h-.567V27.85zm3.714 8.054a1.657 1.657 0 01-.881.751c-.378.137-.882.205-1.637.205h-1.259v-4.3h.567c.88 0 1.51.068 1.825.136.504.137.944.41 1.259.751.315.341.44.82.44 1.297.064.41-.062.82-.314 1.16zm3.462 2.116h5.854v-1.092H70.75V32.56h4.847v-1.093H70.75v-3.48h4.91v-1.093h-5.917V38.02zm12.023-6.143c-.567-.273-1.511-.41-2.833-.41h-.504V27.85h4.155v-1.092h-5.162V38.02h2.833c1.07 0 1.888-.34 2.455-.955a3.227 3.227 0 00.881-2.253c0-.682-.189-1.228-.504-1.774-.251-.478-.755-.888-1.321-1.16zm.44 4.096c-.189.34-.503.546-.818.75-.378.137-.881.205-1.637.205h-1.259v-4.3h.567c.881 0 1.51.068 1.951.205.44.136.819.341 1.07.75.252.41.441.82.441 1.297 0 .41-.063.751-.315 1.093zm2.707-1.639h3.84v-.955h-3.84v.955zm8.435-5.938a4.372 4.372 0 012.266-.614c.755 0 1.447.204 2.077.477.63.342 1.196.82 1.637 1.434l.818-.683c-.504-.75-1.133-1.365-1.889-1.775-.755-.41-1.636-.614-2.58-.614-1.574 0-2.959.546-3.966 1.638-1.07 1.093-1.574 2.458-1.636 4.164 0 1.57.44 2.867 1.321 4.027 1.007 1.297 2.455 1.98 4.28 1.98.945 0 1.826-.205 2.581-.546.756-.41 1.448-.956 1.952-1.638l-.819-.683c-1.007 1.229-2.203 1.843-3.65 1.843-1.322 0-2.392-.478-3.274-1.365-.88-.887-1.258-2.048-1.258-3.413 0-.887.188-1.707.566-2.457.315-.82.818-1.366 1.574-1.775zm7.805-.341h2.329l-.063 10.102h1.07l.063-10.102h2.329v-1.093h-5.665l-.063 1.093zm10.638 6.62l-3.085-7.644h-1.196l3.714 9.01c-.252.614-.44 1.024-.692 1.16a1.197 1.197 0 01-.693.205c-.188 0-.377-.068-.503-.136-.189-.069-.504-.41-1.007-.956l-.756.682c.504.615.945 1.024 1.259 1.16.315.138.693.274 1.07.274.945 0 1.574-.478 1.952-1.434l3.965-10.034h-1.133l-2.895 7.714zM121.8 27.1h-.378l-4.091 10.1h-.818v2.73h1.007v-1.706l8.309.069V40h1.007v-2.73h-.818L121.8 27.099zm-3.273 10.1l3.084-7.85 3.211 7.85h-6.295zm10.827-1.365l.063-8.737h-1.008l-.062 11.195h.251l6.861-8.533-.125 8.6h1.07l.063-11.194h-.252l-6.861 8.67zm13.47-8.669c-1.133 0-1.951.068-2.329.137a2.6 2.6 0 00-1.511.955c-.377.478-.566 1.093-.566 1.843 0 .615.126 1.16.378 1.639.251.477.629.819 1.133 1.023.503.273 1.196.342 2.014.342l-3.714 5.188h1.259l3.714-5.188h.566v5.188h1.007l.063-11.195-2.014.068zm1.007 4.915h-1.762c-.693 0-1.196-.068-1.511-.205a1.504 1.504 0 01-.755-.682 2.052 2.052 0 01-.252-1.024c0-.41.126-.683.315-1.024.188-.273.44-.546.755-.683.315-.136.818-.205 1.511-.205h1.825l-.126 3.823z" fill="#FF3721"/></svg>